<svg width="40" height="61" fill="none" xmlns="http://www.w3.org/2000/svg"><g clip-path="url(#clip0)" fill="#21354B"><path d="M36.113 7.673C30.558.118 23.983.275 15.063 1.34 6.14 2.424 1.368 9.96.853 19.693.404 28.256 4.7 32.31 9.296 34.22c.058.02.194.063.408.145.136.042.311.085.525.148 1.361.36 4.127.925 8.37.993 2.131.025 4.103.183 6.06.165l1.272-.052a.43.43 0 00.157-.016c.137-.017.254-.015.391-.031 1.999-.154 3.983-.601 6.117-1.65 6.986-4.874 8.482-19.488 3.517-26.249zM13.878 21.681c-.164.348-.654.436-.584-.129.07-.565.614-1.315.614-1.315s.365-.598 1.11-.68c.784-.1 1.303.32 1.689 1.539.385 1.218.093 1.173.093 1.173s-.417.284-.646-.931c-.23-1.196-.875-1.19-1.249-1.08-.354.11-.863 1.075-1.027 1.423zm8.018 10.437c-.32.326-.754.512-1.204.542-.842.04-1.895-.098-2.165-1.256 0 0-.086 1.326-1.882 1.172-1.289-.105-1.621-1.05-1.708-1.559-.035-.235.01-.488.17-.66.16-.172.376-.246.54.324.238.805.467 1.103 1.385 1.141.919.039 1.15-1.655 1.15-1.655s-.68-.268-.975-1.114c-.296-.846-.878-1.99-.878-1.99s-.69-1.635.7-1.743c1.392-.108 3.5.072 3.5.072s.916.156.523 1.183c-.412 1.026-1.329 2.804-1.329 2.804s-.428.83-.819.822c0 0 .08 1.779 1.136 1.8 1.35.029 1.638-.668 1.683-.98a.65.65 0 01.224-.405c.14-.134.336-.169.483.264.148.413-.194.894-.534 1.238zm2.176-9.698s-.416.284-.645-.931c-.23-1.196-.875-1.19-1.25-1.08-.373.109-.882 1.055-1.026 1.423-.164.348-.655.436-.584-.13.07-.564.614-1.314.614-1.314s.364-.598 1.109-.68c.785-.101 1.304.32 1.69 1.538.404 1.22.092 1.174.092 1.174zm2.365 12.37c-.013-.313-.044-.704-.054-1.173v-.039a.526.526 0 00-.015-.176.38.38 0 00-.016-.157l.002-.117a7.1 7.1 0 01-.024-.703 17.197 17.197 0 00-.059-.958l.002-.098c.001-.058-.017-.137-.015-.195.001-.078-.016-.176-.015-.254l.001-.04c.002-.078-.016-.156-.015-.234a.54.54 0 00-.015-.176c0-.059.002-.098-.017-.157a.43.43 0 00-.016-.156c-.031-.391-.043-.782-.073-1.193l.001-.078c.002-.098-.015-.195-.013-.293v-.04c.003-.097-.015-.195-.013-.292l.002-.078c.002-.098-.016-.196-.014-.293l.002-.06c.002-.097-.016-.195-.014-.292l.001-.059c-.03-.45-.06-.9-.07-1.349l.002-.058c.002-.098-.016-.196-.013-.313v-.058c.003-.098-.015-.196-.013-.294l.002-.078c.002-.097-.016-.195-.014-.293l.001-.039c-.03-.43-.06-.86-.071-1.27 0-.04.001-.079-.017-.138.002-.078-.017-.137-.015-.215a.377.377 0 00-.016-.156c.001-.078-.017-.137-.015-.215a.248.248 0 00-.018-.118c.002-.078-.016-.156-.014-.234 0-.04.001-.078-.017-.118.001-.078-.017-.137-.015-.215 0-.059.002-.098-.017-.137-.017-.118-.014-.254-.032-.372.002-.058-.017-.117-.016-.156a.43.43 0 00-.016-.157c0-.058-.017-.117-.016-.176.001-.058-.017-.117-.016-.176.001-.058.002-.097-.016-.156 0-.06-.018-.118-.016-.177 0-.058-.017-.117-.017-.156.002-.059-.017-.118-.016-.157a.43.43 0 00-.016-.156c0-.059.002-.098-.017-.157.002-.058-.016-.137-.015-.195 0-.04.002-.078-.018-.098.002-.098-.015-.196-.013-.293 0-.04.002-.079-.017-.118.001-.059-.018-.098-.017-.157a.332.332 0 00-.016-.137c0-.058-.018-.098-.017-.137 0-.039.002-.078-.017-.117 0-.04-.018-.098-.017-.137 0-.04.002-.078-.017-.118 0-.039-.018-.098-.017-.137.001-.039.002-.078-.017-.098.001-.058-.018-.098-.017-.137 0-.039.001-.058-.017-.098.001-.078-.017-.137-.016-.215l.001-.039c.001-.058-.017-.117-.016-.156 0-.02 0-.04.002-.078 0-.04-.018-.079-.018-.118l.002-.078c0-.04.002-.078-.017-.098v-.059a.164.164 0 00-.017-.098l.001-.058a.176.176 0 00-.017-.098v-.04c.002-.038-.017-.078-.017-.117-.209-1.234-.682-2.923-1.67-4.31l1.803-3.029.02-.019c.061-.116.286-.58.657-.572l.078.001c.41.087.982.763 1.64 3.022.402 1.356.75 2.456 1.084 3.322.075.197.15.374.224.552.074.177.15.335.224.493.075.157.15.296.226.434.038.06.075.138.113.197.076.12.152.238.248.337.037.06.076.1.133.16.134.139.269.259.403.379.038.04.097.06.135.1a2.74 2.74 0 001.34.419l.196.003a.38.38 0 00.157-.016c.63-.162.946-1.308 1.094-2.75.027-.37.054-.74.082-1.15l.015-.703.007-.351a53.108 53.108 0 00-.122-3.556 10.183 10.183 0 00-.257-1.783c-.036-.118-.072-.255-.11-.373-.402-1.297-1.169-2.074-2.524-2.747a4.011 4.011 0 00-1.556-.423c-.058 0-.137-.002-.195-.004a3.571 3.571 0 00-1.652.435c-.06.018-.1.056-.159.094a3.89 3.89 0 00-.714.513c-.04.018-.06.057-.1.095a.27.27 0 00-.06.077l-.02.02c-.922 1.034-2.57 4.183-3.386 5.767-.02 0-.02-.02-.039-.02-.038-.02-.057-.06-.096-.08-.038-.04-.096-.08-.134-.12-.039-.02-.058-.04-.097-.06-.077-.06-.154-.101-.231-.162-.02-.02-.039-.02-.058-.04-.058-.04-.135-.08-.193-.121-.039-.02-.058-.04-.097-.06-.058-.04-.116-.062-.174-.102-.038-.02-.057-.04-.097-.04-.096-.042-.193-.083-.27-.124-.02 0-.04-.02-.04-.02-.077-.04-.174-.062-.252-.103-.038-.02-.077-.021-.097-.04l-.233-.064c-.039-.001-.058-.021-.097-.022-.117-.022-.214-.063-.331-.085H20c-.097-.022-.214-.044-.33-.066a.249.249 0 01-.118-.022c-.097-.002-.175-.023-.273-.025l-.117-.002c-.117-.003-.254-.025-.39-.028a3.193 3.193 0 00-.431.01c-.04 0-.059 0-.099.018a1.51 1.51 0 00-.313.033c-.02 0-.06.018-.079.018a8.24 8.24 0 00-.314.052c-.02 0-.04.019-.059.018-.117.017-.216.054-.334.071-.02 0-.02 0-.04.019-.117.037-.235.073-.334.11h-.02c-.118.036-.236.093-.335.13-.158.074-.316.15-.474.243-.862-.896-2.54-1.985-4.655-.018-2.645 2.132-4.809 7.438-5.035 8.937a7.191 7.191 0 00-.113.72c0 .039-.021.077-.022.116-.021.078-.023.176-.044.253-.047.35-.054.683-.02.996.033.274.106.53.257.747.02.04.038.06.077.1.172.198.403.36.753.464.155.042.33.066.487.088l.156.003c.215.005.412-.05.609-.104.059-.018.137-.036.197-.074.098-.037.197-.094.277-.15a2.84 2.84 0 00.258-.171c.06-.038.1-.095.159-.133a2.27 2.27 0 00.585-.886 6.92 6.92 0 00.363-1.438c.044-.272.09-.564.116-.876v-.02c.344-3.37 1.28-7.042 1.862-7.733.742-.902 1.648-1.215 2.863-.39a5.132 5.132 0 00-.559.555l-.02.02a5.52 5.52 0 00-.643.826l-.02.019c-.1.135-.201.289-.283.443v.02c-.182.308-.365.636-.529.965 0 .02-.02.039-.02.039a16.48 16.48 0 00-.471 1.025c0 .02-.02.038-.02.038-.062.155-.125.33-.186.485 0 .02-.02.038-.021.058-.125.349-.25.698-.374 1.066-.02.039-.021.078-.041.097-.043.155-.105.31-.147.465 0 .02-.02.039-.02.059-.063.174-.106.349-.168.523 0 .04-.02.058-.022.098-.042.135-.084.29-.126.426-.02.04-.021.078-.042.136-.043.175-.085.35-.147.505-.022.097-.063.213-.085.31 0 .02 0 .04-.02.059-.022.097-.044.214-.066.33 0 .02 0 .04-.02.058l-.067.35v.02c-.022.117-.044.253-.066.37 0 .02-.002.058-.022.077-.022.117-.044.253-.066.39l-.002.058c-.022.117-.044.253-.066.39l-.001.038-.067.409a.181.181 0 01-.022.097l-.067.409-.002.078c-.022.136-.025.273-.047.409l-.001.058a3.181 3.181 0 00-.048.429l-.002.098c-.023.136-.026.292-.049.448l-.002.078c-.022.136-.025.273-.047.409l-.002.097c-.023.156-.026.293-.049.448l-.002.118c-.023.155-.026.292-.048.448l-.002.058c-.002.137-.025.273-.028.41 0 .039 0 .058-.002.097-.003.157-.025.293-.028.449l-.003.117c-.003.156-.025.292-.029.448v.059c-.004.137-.026.273-.029.41l-.002.117c-.003.136-.026.292-.029.429l-.002.117c-.003.136-.026.273-.028.41l-.002.058c-.002.136-.025.273-.027.41l-.003.116c-.003.137-.025.273-.028.41l-.002.097a2.124 2.124 0 01-.027.351l-.002.078a2.115 2.115 0 01-.026.351l-.003.117a2.067 2.067 0 01-.027.351l-.002.098-.006.293-.001.078-.007.312-.002.117-.006.273-.003.137c0 .059-.002.117-.004.195l-.002.137-.005.215-.002.117-.003.136-.005.234v.04l-.003.097C8.502 32.915 1.08 28.68 2.31 20.27 3.675 10.985 7.27 3.62 15.604 2.581c8.334-1.038 14.478-1.184 19.667 6.09 5.412 7.805 2.048 25.758-8.834 26.119zm-8.106 16.449a.735.735 0 00-.215.015l-.02-.04c-.04.038-.079.057-.099.096-.02 0-.02.019-.04.019a.919.919 0 00-.228.64c.032.332.28.61.573.675l.098.002c.137.003.255-.034.335-.13a.501.501 0 00.144-.348c.046-.312-.008-.547-.122-.725a.736.736 0 00-.426-.204zm.177.921c-.002.078-.022.117-.042.116 0 0-.04.02-.098.018-.137-.022-.251-.161-.267-.318-.017-.118.044-.233.124-.349l.059.001c.059.002.116.042.155.082.076.099.093.236.069.45z"/><path d="M28.792 36.264c-.562-.246-1.35-.009-1.35-.009-2.105.64-12.535-.064-14.232-.294-1.697-.23-4.295-1.3-4.295-1.3a1.298 1.298 0 00-.979.038c-.711.357-.947 1.367.937 1.992.233.083.447.146.68.229-.376 1.144-1.05 4.391.3 10.96l-.078-.001-.039-.001-.176-.004h-.039.04l-.098-.002h-.02l-.156-.004-.079-.001h.04-.079l-.078-.002-.098-.003-.097-.002a.239.239 0 01-.117-.021l-.059-.002a.17.17 0 01-.097-.021l-.04-.001c-.038 0-.077-.021-.136-.023h-.039c-.02 0-.059-.002-.078-.021-.02 0-.058-.021-.077-.022-.04 0-.078-.02-.137-.022h-.02c-.019 0-.039-.001-.058-.021-.039 0-.078-.021-.117-.022-.038-.02-.077-.021-.116-.041h-.02l-.02-.001-.174-.062a.181.181 0 00-.097-.022c-.117-.041-.214-.083-.33-.124-.02 0-.02 0-.039-.02-.097-.041-.175-.063-.272-.104h-.02a.353.353 0 00-.096-.041c-.077-.04-.136-.061-.213-.102l-.116-.061c-.058-.04-.116-.061-.194-.102a.41.41 0 01-.115-.08l-.174-.121c-.039-.02-.077-.06-.116-.08l-.173-.121c-.039-.02-.077-.06-.116-.08-.058-.041-.115-.1-.192-.16-.039-.021-.058-.041-.096-.081-.077-.08-.173-.14-.25-.22l-.019-.02c-.208.62-.282 1.342-.801 1.858-.1.096-.2.172-.299.248.116.1.231.18.346.28-.115-.08-.23-.18-.346-.28.1-.076.199-.152.299-.248.519-.516.573-1.238.801-1.858-.958-.938-1.655-2.24-1.854-3.983-.346-3.13 2.324-4.56 2.984-2.418.679 2.162-1.326 1.71-1.326 1.71.508.968 1.87 1.309 2.557-.688 1.247-3.567-5.483-6.304-5.707 1.658-.084 3.142 1.129 5.023 2.709 6.149.116.08.212.16.328.221l.019.02c.02.02.039.02.058.04.116.061.232.142.348.203.019.02.038.02.058.04.096.06.213.102.31.163.019 0 .038.02.038.02h.02s.019 0 .038.02c.116.062.233.103.33.144.155.062.29.124.446.166h.02a9.252 9.252 0 001.653.425h.02l.039.001h.02c.116.023.233.044.35.066h.02c.097.022.195.024.292.046h.04l.038.002c.215.024.43.048.606.051h.02c.233.025.429.029.605.033h.02l.058.001h.02l.078.002.039.001h.039l.039.002c.45 1.844 1.073 3.908 1.847 6.208-.75.317-2.647 1.234-2.806 2.344-.044.233.025.664.842.857.857.213 2.208.124 3.189-.032.981-.155 2.2-.462 2.387-1.005.27-.756.182-3.12.125-4.117.934.234 3.25.75 5.29.461l-.41 3.721c0 .04 0 .078.018.118.018.078.512 1.728 3.835 1.797.567.012 1.233-.033 1.978-.115.353-.051.67-.26.872-.548a1.19 1.19 0 00.119-.994c-.222-.629-.775-1.304-1.7-2.007a59.65 59.65 0 001.634-7.093c.806-4.924.748-8.752-.194-11.407.528-.029 2.077-.211 1.944-1.307-.05-.412-.261-.63-.513-.753zM9.834 47.88c.117.002.216-.015.313-.013-.098-.002-.196.015-.293.013h-.02s-.02 0 0 0c-.02 0 0 0 0 0zm-4.69-1.152c1.193.962 2.746 1.522 4.35 1.555l.332.007.34 1.49-.176-.003c-1.055-.022-3.594-.23-5.52-1.637.4-.441.548-.965.674-1.412zm5.328 3.41h-.04.04zm5.245 3.585c-.481-1.299-2.898-8.32-.385-10.67 1.316-1.222 3.03-1.792 4.706-1.523 1.501.227 2.813 1.113 3.51 2.358 1.32 2.37-1.536 9.067-2.09 10.325-2.357.478-5.449-.406-5.74-.49zm9.578 3.127c-.042.117.014.254.11.334 1.137.825 1.515 1.457 1.644 1.83a.548.548 0 01-.068.488.667.667 0 01-.437.283c-4.157.54-5.007-.923-5.138-1.2l.456-4.051c0-.059.002-.098-.017-.157.574-1.277 3.513-8.128 2.08-10.696-.755-1.344-2.182-2.31-3.8-2.559-1.794-.271-3.645.315-5.06 1.633-1.257 1.165-1.578 3.443-.942 6.756.37 1.98.997 3.77 1.22 4.36a.366.366 0 00-.043.156c.059.958.16 3.615-.069 4.294-.224.445-3.62 1.058-4.981.639-.194-.063-.27-.142-.27-.162.112-.72 1.715-1.605 2.7-1.994.158-.056.22-.23.185-.387-4.3-12.41-3.189-17.913-2.749-19.33a30.418 30.418 0 007.66 1.33c2.91.14 7.53-.019 8.978-.067 2.354 6.258-1.417 18.364-1.46 18.5z"/></g><defs><clipPath id="clip0"><path fill="#fff" transform="rotate(1.187 -17.254 59.799)" d="M0 0h38.17v59.62H0z"/></clipPath></defs></svg>