<svg width="49" height="65" fill="none" xmlns="http://www.w3.org/2000/svg"><path d="M28.736 30.398l6.793-.33c9.425-.247 12.11-16.944 6.914-23.812C37.64-.087 32.06.104 24.51 1.117c-7.55 1.034-11.522 7.505-11.85 15.776-.607 15.165 16.077 13.505 16.077 13.505zm-5.775-10.822c-.127.313-.545.373-.5-.108.045-.48.509-1.124.509-1.124s.317-.5.944-.579c.67-.079 1.106.259 1.454 1.285.348 1.026.097 1.003.097 1.003s-.357.249-.558-.777c-.202-1.025-.767-1.008-1.08-.905-.315.081-.738.893-.866 1.205zm12.44 4.85c-.112 1.107-1.561 2.204-3.046 2.299l-.25-.002c-1.107-.008-1.98-.599-2.496-1.647-.53 1.062-1.411 1.64-2.519 1.633l-.25-.002c-1.483-.136-2.917-1.253-3.034-2.34a.325.325 0 11.648-.058c.057.71 1.18 1.659 2.453 1.772.689.067 1.881-.113 2.416-1.906-.29-.315-.432-1.047-.492-1.32a.247.247 0 01.022-.208.457.457 0 01.105-.062c.418-.102.857-.078 1.275-.033.083 0 .166.022.208.085.041.063.02.146.02.21-.065.25-.237.917-.51 1.25.467 1.862 1.698 2.058 2.388 2 1.275-.095 2.389-1.027 2.457-1.737a.312.312 0 01.357-.27c.146.022.27.17.248.337zm1.012-4.317s-.357.248-.559-.777c-.201-1.026-.766-1.009-1.08-.906-.314.081-.738.914-.865 1.226-.128.313-.546.373-.5-.108.044-.48.508-1.124.508-1.124s.317-.5.945-.579c.669-.079 1.105.259 1.453 1.285.348 1.026.098.983.098.983zm-22.65-2.749C14.82 9.47 17.789 3.14 24.837 2.164 31.906 1.19 37.11.975 41.601 7.107c2.98 4.074 3.118 11.43.616 16.594 0 .02-.02.041-.02.041l-.001.021a.16.16 0 00-.021.063c-.042-.042-.931-1.302-3-1.337-2.089-.036-.91-1.218-.347-1.173.439.024 2.173.036 3.32.441a11.401 11.401 0 00-.1-.836c-.457-.359-1.352-.845-2.71-.75-2.09.131-.995-1.136-.452-1.132.376.003 1.714-.155 2.82.02-.972-4.395-2.994-8.086-2.994-8.086s.351-2.463.029-4.137c-.323-1.673-1.505.032-1.505.032l-1.645 2.266c-.96-.237-1.857-.41-2.713-.541.1.815-.18 1.774-.223 2.046-.044.396-1.407 1.014-1.083-.467a2.24 2.24 0 00-.322-1.779l-.94-.069c.517.84.046 2.403.002 2.758-.044.397-1.407 1.014-1.083-.467.28-1.294-.55-2.135-.757-2.304l-.857.057c.37.838.152 2.111.15 2.425-.003.397-1.282 1.12-1.146-.363.068-.857-.304-1.465-.614-1.843-1.8.322-2.743.816-2.743.816s-1.738-2.477-2.174-2.96c-.414-.484-.75-.298-.92.285-.172.584-.028 3.99-.028 3.99-1.584 2.33-2.631 5.75-3.278 8.649 1.108-.16 2.424-.025 2.8-.022.564.004 1.683 1.265-.447 1.146-1.337-.093-2.238.36-2.721.712-.065.376-.13.751-.196 1.085 1.173-.326 2.905-.126 3.344-.123.564.004 1.684 1.265-.447 1.146-2.13-.14-3.204 1.127-3.204 1.127-.044.355-.066.543-.067.564-1.47-1.766-2.602-4.302-2.161-7.642z" fill="#21354B"/><path d="M47.974 40.267c-.492-1.403-4.691-7.512-6.305-9.821a5.51 5.51 0 00.504-.31.702.702 0 00.337-.437c.064-.23.045-.46.026-.71-.02-.209-.039-.418-.184-.565-.187-.19-.5-.15-.752-.068-.502.163-.944.515-1.384.805a1.723 1.723 0 01-.252.165c-1.322.848-2.851 1.339-4.419 1.474-3.742.35-9.99.411-11.264.36-.105 0-.23-.022-.334-.044-2.775-.583-5.59-1.46-7.96-3.022-.27-.169-.562-.38-.898-.152a.707.707 0 00-.274.374c-.278.896.388 1.256 1.012 1.741.353.274.77.507 1.227.72-.612.935-1.733 2.912-2.588 5.685a24.778 24.778 0 00-1.023 8.894c-.409 1.668-1.98 2.347-3.4 2.274-1.087-.05-1.834-.765-2.47-2.378-.534-1.32-.524-2.845-.535-4.182l-.018-3.51c-.01-1.526-.165-3.22-1.413-4.022-1.27-.844-3.028-.23-3.934.83-.948 1.121-1.23 2.644-1.385 3.855-.29 2.547-.21 6.12 1.883 8.684.808.988 2.488 2.775 4.447 3.437 1 .34 1.94.514 2.817.52.48.004.92-.035 1.338-.136 1.13-.243 2.37-1.196 3.066-2.257a24.743 24.743 0 001.08 3.873c4.04 11.123 7.481 11.94 8.38 11.947.083 0 .146 0 .188-.02.167.001.794-.057 1.447-.825.885-1.039 1.441-2.895 1.69-5.546.646.088 2.275.245 4.197.238.92-.015 1.797-.05 2.613-.128.304 1.318 1.669 6.363 3.842 6.378h.062c1.066-.034 2.102-1.72 3.15-5.18a52.882 52.882 0 001.225-4.965c.021-.062 0-.125-.02-.188 1.855-2.369 2.377-5.206 2.385-6.397.01-1.38-.124-3.219-.361-5.184.748.569 2.142 1.456 3.333 1.464l.146.001c.543-.038.92-.202 1.153-.535.485-.707.055-1.943-.375-3.137zm-35.056 8.511l-.021.021c-.169.187-.358.353-.547.519h-.02c-.526.414-1.113.744-1.658.866-.774.182-1.651.155-2.59-.018-.167-.022-.313-.065-.48-.108-.062-.022-.104-.022-.167-.043-.062-.021-.125-.043-.188-.043l-.437-.129c-.105-.042-.209-.064-.313-.106-.02-.021-.063-.022-.083-.043a3.418 3.418 0 00-.271-.127c-.021 0-.02-.02-.042-.021-.104-.042-.187-.106-.291-.148-.02-.021-.042-.022-.083-.043a.861.861 0 01-.23-.147c-.02-.022-.04-.022-.062-.043a1.908 1.908 0 00-.27-.169c-.02-.02-.042-.02-.062-.042-.084-.042-.146-.105-.208-.148-.021-.02-.042-.02-.063-.042l-.25-.19c-.02-.02-.04-.02-.04-.042-.063-.063-.146-.105-.208-.168L4.27 48.3a2.07 2.07 0 01-.228-.211l-.02-.021-.188-.19-.062-.063a1.35 1.35 0 00-.187-.168l-.02-.02a12.39 12.39 0 01-.933-1.052C1.017 44.6.659 41.924.758 39.689v-.02c.001-.147.023-.293.024-.44.548-.602 1.324-1.035 2.12-1.238 1.025-.265 2.09-.237 3.134-.104.146.022.292.065.438.108v3.134l-.004.396c.014.983.049 2.048.292 3.074l.123.44c0 .02 0 .02.02.041.041.147.103.294.144.44.04.084.082.189.123.273 0 .02.02.041.041.063.042.083.062.167.103.23 0 .021.02.042.02.063.104.21.207.398.33.587 0 0 0 .021.022.021.062.084.124.19.186.273.145.19.29.357.477.505.083.084.187.148.27.21.374.254.854.445 1.397.47a5 5 0 001.463-.157c.105-.02.21-.061.314-.102.084-.041.189-.062.273-.103.02 0 .042-.02.063-.02.083-.041.146-.083.21-.103.02-.021.041-.02.062-.042.084-.04.168-.103.252-.144.084-.062.168-.124.231-.186l.042-.042c.063-.041.105-.104.168-.166l.063-.062c.043-.063.106-.104.148-.166l.063-.063c.063-.083.127-.166.169-.25.04.335.079.67.139 1.026-.042.083-.085.187-.127.27-.021.021-.021.042-.043.063a.86.86 0 01-.147.228c0 .021-.021.021-.022.042-.063.083-.126.187-.21.27l-.042.042c-.022.062-.106.145-.17.228zm13.165 8.784c-.503 6.118-2.55 6.145-2.592 6.145h-.084c-.042 0-3.555.476-7.943-11.568a26.548 26.548 0 01-.979-3.392c.421-.498 1.41-1.348 3.25-1.753 2.637-.566.888-1.456.218-1.273-.502.143-2.427.547-3.79 1.165-.059-.502-.118-.983-.156-1.464 0-.02.02-.041.021-.083.588-.393 1.783-1.033 3.81-1.165 2.99-.188 1.242-1.224.448-1.146-.565.059-2.76.19-4.35.576.003-.522.028-1.024.052-1.504.608-.31 1.802-.698 3.576-.414 2.671.416 1.365-1.035.655-1.103-.522-.066-2.546-.393-4.03-.279.68-4.696 2.584-8.046 3.365-9.274.313.128.625.255.938.362 1.334.469 2.167.872 3.002 1.003.813.152 1.669.283 2.546.373.221 1.213.957 3.558 3.443 6.647 1.553 1.933 3.122 4.68 2.402 6.096-.254.521-.777.601-1.153.578-1.107-.05-2.041-.934-2.871-1.713-.623-.568-1.142-1.073-1.685-1.119-.334-.023-.523.122-.628.247-.485.623.025 2.298.148 2.654 2.753 6.726 2.408 11.362 2.386 11.404zm13.883 1.475c-1.304 4.274-2.268 4.769-2.624 4.787-.773.016-1.622-1.035-2.382-2.983a27.087 27.087 0 01-.92-2.89c1.903-.237 3.494-.707 4.753-1.388a9.504 9.504 0 002.247-1.718 59.901 59.901 0 01-1.074 4.192zm-1.462-2.977c-3.88 2.125-10.457 1.453-11.835 1.276.05-1.107.016-5.37-2.407-11.362-.266-.817-.447-1.842-.237-2.091.021-.02.043-.042.126-.041.334.023.832.486 1.351.97.852.8 1.91 1.79 3.226 1.861.773.048 1.38-.282 1.698-.886.72-1.395-.202-3.909-2.46-6.724-2.3-2.858-3.057-5.057-3.3-6.228 1.295.113 2.674.164 4.178.133 2.257-.068 5.54-.38 7.484-.575a9.999 9.999 0 003.203-.876c.272-.123.545-.247.817-.391 1.03 2.117 2.15 6.325 2.747 10.633-.021.062-.001.146.02.209.258 1.945.411 3.91.399 5.707 0 .041-.166 5.744-5.01 8.385zm9.366-12.973c-.126.167-.357.27-.712.288-1.317.074-3.166-1.38-3.54-1.696-.537-3.932-1.51-8.284-2.767-10.8.105-.062.21-.103.315-.165 1.572 2.246 5.813 8.418 6.263 9.738.349.963.758 2.157.441 2.635z" fill="#21354B"/><path d="M5.207 48.997c-.021-.022-.042-.022-.063-.043.021.021.042.021.063.043zm.645.401c-.021-.021-.042-.021-.084-.042.021 0 .042.02.084.042zm-.312-.19c-.021-.021-.042-.021-.063-.043.02.022.042.043.062.043zm6.79.11c.188-.166.378-.332.546-.519a4.321 4.321 0 01-.547.519zm-4.248.848c-.167-.022-.313-.065-.48-.108.167.043.334.065.48.108zm-1.918-.599c-.021 0-.021-.02-.042-.02.021 0 .042 0 .042.02z" fill="#21354B"/><path d="M11.503 48.08a4.384 4.384 0 01-1.464.156 2.657 2.657 0 01-1.397-.47c-.4.5-.514 1.774-.54 2.4.94.195 1.817.201 2.592.018.544-.121 1.132-.451 1.657-.866-.19.166-.4.31-.63.435-.268-.504-.285-1.089-.218-1.674zm1.626.45c-.064.082-.127.166-.211.248.063-.083.147-.166.21-.249zm-6.611 1.186c-.02-.021-.063-.021-.083-.042.02.02.041.02.083.042zm.917.299zm5.745-2.948l-.063.062.063-.062zm-5.864-.981c0 .02.02.042.02.063-.02-.021-.02-.042-.02-.063zm.351.65s0 .023.022.023l-.022-.023zm-.495-.943c0 .02.02.042.041.063-.02-.021-.041-.043-.041-.063zm-.287-.755c0 .021 0 .021.02.042-.02-.02-.02-.042-.02-.042zm6.022 2.299l.042-.042-.042.041zm-4.577.198c.022 0 .021.022 0 0 .021.022.022 0 0 0zm3.738.318c.02 0 .042-.02.063-.02-.021 0-.043.02-.063.02zm-5.306-3.275c-.243-1.026-.278-2.091-.292-3.074-1.043-.153-2.13-.202-3.155.062-.858.224-1.78.698-2.33 1.426-.242-1.13-.276-2.259-.248-3.303-.078 2.235.259 4.89 1.895 6.887.25.294.56.651.933 1.051a5.303 5.303 0 013.197-3.05zm5.578 3.131c.021-.02.042-.02.063-.041-.02.02-.042.041-.063.041zm.988-.809zM.759 39.647c0-.146.022-.292.024-.438a3.063 3.063 0 00-.024.438zm3.306 8.445l-.022-.023.022.023zm.29.251l-.063-.063c.02.042.042.063.063.063zm9.005-.125c-.063.083-.126.187-.21.27.084-.083.147-.187.21-.27zm-8.756.335c-.021-.02-.042-.02-.042-.041l.042.041zm9.096-.96c-.043.083-.086.188-.128.27.042-.082.106-.166.127-.27zm-8.764 1.214c-.02-.021-.041-.022-.062-.043.02 0 .042.022.062.043z" fill="#21354B"/><path d="M3.588 47.65l-.023-.023s.023 0 .023.022zm.247.23l-.062-.064.062.064zm9.695.067c-.043.083-.085.166-.148.229.063-.084.105-.146.148-.23zm24.391 1.82a1.178 1.178 0 00-.25-.085l-.02-.042c-.064.02-.106.04-.169.061-.02 0-.041 0-.041.02a1.099 1.099 0 00-.548.603c-.128.376.015.816.327 1.006.104.064.23.106.334.107a.61.61 0 00.188-.04c.168-.062.253-.208.337-.312.19-.312.255-.604.194-.856a.843.843 0 00-.352-.462zm-.258 1.106c-.043.084-.085.104-.106.125-.02 0-.063 0-.104-.022a.417.417 0 01-.143-.46.638.638 0 01.295-.333c.02 0 .041.021.062.021a.324.324 0 01.124.168c.041.126-.002.293-.128.501z" fill="#21354B"/></svg>