<svg width="63" height="51" fill="none" xmlns="http://www.w3.org/2000/svg"><circle cx="25.811" cy="25.359" r="25" fill="#DADADA"/><path d="M42.298 37.527H29.445v-1.352h12.853a.433.433 0 00.431-.431v-24.81a.436.436 0 00-.431-.44H16.134a.436.436 0 00-.432.44v24.81a.432.432 0 00.432.431h5.13v1.352h-5.13a1.785 1.785 0 01-1.783-1.784v-24.81a1.789 1.789 0 011.783-1.79h26.164a1.79 1.79 0 011.783 1.79v24.81a1.785 1.785 0 01-1.783 1.784z" fill="#21354B"/><path d="M35.131 14.758a2.319 2.319 0 00-1.691 1.88l-1.136.304a.481.481 0 00.248.93l1.466-.393a.481.481 0 00.356-.47 1.356 1.356 0 112.667.34.48.48 0 00.125.465 1.355 1.355 0 01-.608 2.269 1.356 1.356 0 01-1.532-.642.481.481 0 00-.544-.228l-10.544 2.825a.48.48 0 00-.357.47 1.356 1.356 0 11-2.667-.34.481.481 0 00-.125-.465 1.355 1.355 0 01.608-2.27 1.356 1.356 0 011.533.643.481.481 0 00.543.228l7.1-1.902a.481.481 0 00-.25-.93l-6.77 1.815a2.319 2.319 0 00-3.623 2.896 2.321 2.321 0 002.894 2.576 2.318 2.318 0 001.691-1.88l9.888-2.649a2.318 2.318 0 003.622-2.896 2.318 2.318 0 00-2.894-2.576zm7.167 21.417h5.779v1.352h-5.78v-1.352zm15.972 1.352h-2.004v-1.352h2.004a2.027 2.027 0 002.027-2.027v-5.33c0-.371-.102-.735-.294-1.052l-4.967-8.176a2.038 2.038 0 00-1.732-.975h-9.899v-1.351h9.899a3.398 3.398 0 012.887 1.622l4.966 8.175c.322.53.492 1.137.492 1.757v5.33a3.383 3.383 0 01-3.379 3.379z" fill="#21354B"/><path d="M52.172 41.619a4.768 4.768 0 110-9.537 4.768 4.768 0 010 9.537zm0-8.184a3.416 3.416 0 100 6.833 3.416 3.416 0 000-6.833zm-26.82 8.184a4.768 4.768 0 110-9.536 4.768 4.768 0 010 9.536zm0-8.184a3.416 3.416 0 100 6.833 3.416 3.416 0 000-6.833zm-10.325-5.373h28.378v1.351H15.027v-1.351zm45.946.675H46.818v-10.8h1.352v9.45h12.803v1.35zm-13.479 1.352h2.668v1.351h-2.668v-1.35z" fill="#21354B"/></svg>