<svg width="61" height="52" fill="none" xmlns="http://www.w3.org/2000/svg"><circle cx="25.086" cy="25.359" r="25" fill="#DADADA"/><path d="M55.338 41.42a.684.684 0 00.684-.684V38a.684.684 0 00-.684-.685h-4.104V22.95a.684.684 0 00-.684-.684h-3.42v-8.893a.684.684 0 00-.685-.684H40.29V6.531a.684.684 0 00-.684-.684h-8.21a.684.684 0 00-.684.684v6.156h-6.156a.684.684 0 00-.684.685v8.893h-3.42a.684.684 0 00-.685.684v14.365h-4.104a.684.684 0 00-.685.684v2.737c0 .378.307.684.685.684h.684v1.368h-.684a.684.684 0 00-.685.684v2.736c0 .378.307.685.685.685h39.676a.684.684 0 00.684-.684v-2.737a.684.684 0 00-.684-.684h-.684V41.42h.684zm-5.472-4.105H36.184V23.634h4.105v4.788c0 .378.306.684.684.684h4.104a.684.684 0 00.684-.684v-4.788h4.105v13.681zm-8.21-13.681h2.737v4.104h-2.736v-4.104zm4.105-1.368h-9.577v-8.21h2.736v3.421c0 .378.307.684.684.684h2.737a.684.684 0 00.684-.684v-3.42h2.736v8.209zm-5.472-8.21h1.368v2.737h-1.368v-2.736zm-5.473-6.84h1.368v1.368h-1.368V7.216zm-2.736 0h1.368v2.052c0 .378.306.684.684.684h2.736a.684.684 0 00.684-.684V7.216h1.368v5.472h-6.84V7.216zm-2.737 6.84h1.368v2.737h-1.368v-2.736zm-4.104 0h2.736v3.421c0 .378.306.684.684.684h2.736a.684.684 0 00.685-.684v-3.42h2.736v8.209h-9.577v-8.21zm1.368 9.578h2.736v4.104h-2.736v-4.104zm-5.473 0h4.105v4.788c0 .378.306.684.684.684h4.104a.684.684 0 00.684-.684v-4.788h4.105v13.681H21.134V23.634zm-4.788 15.05h38.308v1.368H16.346v-1.368zm4.104 4.104V41.42h30.1v1.368h-30.1zm-2.736-1.368h1.368v1.368h-1.368V41.42zm36.94 4.104H16.346v-1.368h38.308v1.368zm-1.368-2.736h-1.368V41.42h1.368v1.368z" fill="#21354B"/></svg>