<svg width="66" height="51" fill="none" xmlns="http://www.w3.org/2000/svg"><circle cx="25.629" cy="25.359" r="25" fill="#DADADA"/><path d="M65.46 27.474a1.683 1.683 0 00-1.068-1.224l-2.074-.762a.724.724 0 00-.5 1.36l2.074.762c.108.04.142.127.153.175a.235.235 0 01-.065.223l-18.512 18.51a.235.235 0 01-.222.066.235.235 0 01-.175-.153l-2.602-7.078a1.688 1.688 0 00-1.003-1.003l-7.078-2.602a.236.236 0 01-.153-.174.235.235 0 01.066-.223L52.81 16.84a.235.235 0 01.224-.065c.048.01.135.044.174.152l2.602 7.078a1.69 1.69 0 001.003 1.004l1.8.661a.724.724 0 10.5-1.36l-1.8-.662a.24.24 0 01-.143-.143l-2.602-7.078a1.683 1.683 0 00-1.223-1.068 1.683 1.683 0 00-1.559.456l-.7.7V9.329c0-.932-.759-1.69-1.691-1.69h-7.38a3.495 3.495 0 00-.633-4.065 3.482 3.482 0 00-3.526-.859A3.494 3.494 0 0034.56.359a3.494 3.494 0 00-3.299 2.355 3.478 3.478 0 00-3.525.858 3.465 3.465 0 00-1.022 2.467c0 .566.135 1.11.387 1.598h-.608a.725.725 0 000 1.45h5.163v6.857a13.617 13.617 0 00-2.438-.222c-1.51 0-2.931.236-4.291.688H19.48V9.329c0-.134.109-.242.242-.242h3.303a.725.725 0 000-1.449h-3.303c-.933 0-1.69.759-1.69 1.69v12.18A13.641 13.641 0 0015.5 29.44c0 2.946.924 5.756 2.672 8.126a.724.724 0 101.166-.86 12.157 12.157 0 01-2.39-7.266c0-6.765 5.504-12.268 12.269-12.268a12.22 12.22 0 0111.906 9.308l-1.227 1.227a10.762 10.762 0 00-3.136-6.016 10.759 10.759 0 00-7.543-3.07c-5.966 0-10.82 4.854-10.82 10.819 0 5.965 4.854 10.819 10.82 10.819a10.81 10.81 0 006.763-2.38l1.553.57a12.292 12.292 0 01-8.316 3.259c-2.8 0-5.539-.972-7.714-2.736a.724.724 0 10-.913 1.126 13.739 13.739 0 008.627 3.059c3.693 0 7.246-1.509 9.823-4.154l1.926.708a.241.241 0 01.143.143l2.602 7.078a1.684 1.684 0 001.59 1.108c.442 0 .87-.174 1.192-.496l18.511-18.51c.41-.41.58-.993.456-1.56zm-45.98-7.687V17.86h2.391c-.868.552-1.67 1.2-2.39 1.927zm30.157-10.46v7.084H37.463V9.086h11.933c.133 0 .241.109.241.242zm-9.279-4.73c.795.795.795 2.09 0 2.885a1.333 1.333 0 01-.2.155h-3.53c1.051-1.978 1.324-2.946 1.395-3.432a2.036 2.036 0 012.335.392zm-5.8-2.789c1.125 0 2.04.915 2.04 2.04 0 .21-.119 1.097-1.62 3.79h-.838c-1.502-2.692-1.621-3.58-1.621-3.79 0-1.125.915-2.04 2.04-2.04zM28.76 7.482a2.026 2.026 0 01-.598-1.443c0-.544.212-1.057.598-1.442a2.033 2.033 0 012.335-.392c.07.487.343 1.454 1.395 3.432h-3.53a1.325 1.325 0 01-.2-.155zm4.344 1.604h2.91v7.325h-2.519c-.13-.043-.26-.083-.391-.122V9.086zm4.686 9.652a13.54 13.54 0 00-1.23-.878h13.078v.105l-2.805 2.805h-6.997a13.769 13.769 0 00-2.046-2.032zm3.081 3.48h4.513l-3.088 3.088a13.725 13.725 0 00-1.425-3.087zm-11.654 16.59c-5.167 0-9.37-4.203-9.37-9.369 0-5.166 4.203-9.37 9.37-9.37 4.974 0 9.142 4.005 9.36 8.957l-5.301 5.3c-.41.41-.58.993-.456 1.56a1.683 1.683 0 001.068 1.223l.457.167a9.355 9.355 0 01-5.128 1.533z" fill="#21354B"/><path d="M30.323 30.63c2.52 0 4.074-1.147 4.074-3.275 0-2.114-1.554-3.262-4.074-3.262h-3.85v7.364h-1.428v.798h1.428v1.638h1.414v-1.638h3.108v-.798h-3.108v-.826h2.436zm2.66-3.261c0 1.33-.952 2.1-2.66 2.1h-2.436V25.31h2.436c1.708 0 2.66.728 2.66 2.058z" fill="#21354B"/></svg>