<svg width="22" height="20" fill="none" xmlns="http://www.w3.org/2000/svg"><path d="M20.393 1.963C19.31.7 17.806 0 16.156 0c-2.316 0-3.785 1.424-4.61 2.622-.215.31-.396.62-.546.915a8.891 8.891 0 00-.546-.915C9.63 1.424 8.16 0 5.844 0 4.194 0 2.69.699 1.607 1.963.571 3.175 0 4.793 0 6.523c0 1.883.713 3.634 2.247 5.513 1.371 1.68 3.343 3.41 5.63 5.413.85.747 1.73 1.516 2.667 2.36l.03.027a.633.633 0 00.851 0l.03-.026c.937-.845 1.818-1.614 2.669-2.361 2.286-2.004 4.258-3.732 5.629-5.413C21.287 10.157 22 8.406 22 6.522c0-1.729-.572-3.347-1.607-4.559zM13.286 16.44c-.735.646-1.491 1.305-2.286 2.017a233.736 233.736 0 00-2.286-2.017C4.241 12.518 1.29 9.927 1.29 6.522c0-1.406.456-2.715 1.285-3.679a4.245 4.245 0 013.27-1.516c1.766 0 2.909 1.118 3.558 2.06.58.845.885 1.694.988 2.02.086.275.335.46.614.46.28 0 .529-.185.615-.46a8.008 8.008 0 01.988-2.02c.64-.942 1.783-2.06 3.55-2.06 1.271 0 2.436.539 3.27 1.516.829.969 1.284 2.273 1.284 3.68 0 3.404-2.952 5.995-7.425 9.917z" fill="#21354B"/></svg>