<svg width="23" height="22" fill="none" xmlns="http://www.w3.org/2000/svg"><path d="M21.895 4.174a2.138 2.138 0 00-1.637-.722H4.6L4.442 2.27C4.272.997 3.386 0 2.424 0h-1.15a.645.645 0 100 1.29h1.15c.207 0 .645.436.74 1.15l1.845 13.838c.08.61.394 1.181.882 1.608.362.317.79.527 1.237.616A2.373 2.373 0 009.212 22a2.373 2.373 0 002.109-3.452h3.377A2.374 2.374 0 0016.806 22a2.374 2.374 0 002.109-3.452h1.689a.645.645 0 000-1.289H7.602c-.63 0-1.232-.527-1.315-1.151l-.135-1.012h12.726c.615 0 1.223-.235 1.71-.662a2.61 2.61 0 00.883-1.608l.924-6.934a2.138 2.138 0 00-.5-1.718zM10.294 19.63a1.083 1.083 0 01-2.163 0 1.083 1.083 0 012.163 0zm7.594 0a1.083 1.083 0 01-2.163 0 1.083 1.083 0 012.163 0zm3.037-14.606c.16.183.228.43.192.699L20.73 8.63h-4.386l.26-3.888h3.654c.27 0 .508.1.667.282zm-9.153 8.784l-.26-3.888h3.454l-.26 3.888h-2.934zm-.345-5.178l-.26-3.888h4.145l-.26 3.889h-3.625V8.63zM9.876 4.742l.26 3.889H5.29L4.77 4.74h5.105v.002zM5.46 9.919h4.76l.26 3.888h-4.5L5.46 9.92v-.001zm13.417 3.888h-2.88l.26-3.888h4.3l-.365 2.737c-.083.624-.686 1.151-1.315 1.151z" fill="#FF7248"/></svg>