<svg width="23" height="23" fill="none" xmlns="http://www.w3.org/2000/svg"><g clip-path="url(#clip0)" fill="#fff"><path d="M11.5.874c-4.265 0-7.734 3.47-7.734 7.734a7.72 7.72 0 001.154 4.067l6.14 9.893c.117.19.324.305.547.305h.006a.644.644 0 00.547-.313l5.983-9.99a7.725 7.725 0 001.091-3.962c0-4.264-3.47-7.734-7.734-7.734zm5.537 11.034l-5.44 9.083-5.581-8.995a6.437 6.437 0 01-.97-3.388c0-3.554 2.9-6.454 6.454-6.454s6.45 2.9 6.45 6.454a6.438 6.438 0 01-.913 3.3z"/><path d="M11.5 4.74a3.872 3.872 0 00-2.736 6.604 3.863 3.863 0 002.736 1.132 3.86 3.86 0 003.867-3.869A3.872 3.872 0 0011.5 4.74zm0 6.454a2.59 2.59 0 01-2.587-2.587A2.596 2.596 0 0111.5 6.021a2.592 2.592 0 012.386 3.576 2.585 2.585 0 01-2.386 1.598z"/></g><defs><clipPath id="clip0"><path fill="#fff" transform="translate(.5 .874)" d="M0 0h22v22H0z"/></clipPath></defs></svg>