<svg width="15" height="16" fill="none" xmlns="http://www.w3.org/2000/svg"><path d="M11.862 9.664c-.307-.32-.679-.49-1.072-.49-.39 0-.764.167-1.084.487l-1.003.999c-.081-.045-.164-.085-.243-.127a4.042 4.042 0 01-.314-.168c-.939-.596-1.792-1.373-2.61-2.378-.395-.501-.662-.923-.856-1.35.26-.239.502-.486.736-.723l.266-.27c.666-.666.666-1.528 0-2.194l-.866-.866c-.1-.099-.198-.2-.295-.301a14.985 14.985 0 00-.595-.59c-.307-.304-.676-.466-1.063-.466-.386 0-.76.162-1.077.466l-.007.007L.702 2.787a2.32 2.32 0 00-.69 1.474C-.062 5.187.21 6.05.42 6.614.933 8 1.699 9.284 2.845 10.66a14.917 14.917 0 004.968 3.89c.73.346 1.703.755 2.79.825.067.003.136.006.2.006.732 0 1.347-.263 1.83-.786.003-.007.009-.01.012-.016.165-.2.355-.38.555-.574.136-.13.276-.266.412-.41.314-.326.479-.706.479-1.096 0-.393-.168-.77-.488-1.088l-1.741-1.747zm1.135 3.339c-.003 0-.003.003 0 0-.123.133-.25.253-.386.387a8.118 8.118 0 00-.613.634c-.32.342-.697.505-1.192.505-.047 0-.098 0-.146-.004-.941-.06-1.817-.428-2.473-.742a14.084 14.084 0 01-4.68-3.665C2.427 8.815 1.703 7.61 1.224 6.316.929 5.526.822 4.912.869 4.331c.032-.37.174-.678.437-.941l1.082-1.082c.155-.146.32-.225.482-.225.2 0 .361.12.463.222l.01.01c.192.18.377.368.57.567l.301.307.866.866c.336.336.336.647 0 .983-.092.092-.18.184-.273.273-.266.273-.52.527-.796.773-.006.007-.013.01-.015.016-.273.273-.223.54-.165.72l.01.029c.224.545.541 1.059 1.023 1.67l.003.004c.876 1.078 1.798 1.918 2.816 2.562.13.082.263.149.39.212.114.058.222.111.313.168l.04.023a.691.691 0 00.313.079c.263 0 .428-.165.482-.219l1.084-1.084c.108-.108.28-.238.479-.238.197 0 .358.123.457.231l.007.007 1.746 1.747c.327.323.327.656.003.992zM8.107 3.93c.831.14 1.597.537 2.19 1.136a4.042 4.042 0 011.134 2.187c.035.21.215.355.421.355.026 0 .048-.003.073-.005a.428.428 0 00.353-.495 4.89 4.89 0 00-1.373-2.648 4.891 4.891 0 00-2.648-1.373.43.43 0 00-.305.784c.048.03.1.05.156.06V3.93zm6.887 3.054a8.046 8.046 0 00-2.26-4.36 8.046 8.046 0 00-4.36-2.26.426.426 0 10-.14.843 7.204 7.204 0 013.896 2.02 7.183 7.183 0 012.02 3.896c.035.21.216.355.422.355.026 0 .048-.003.073-.006a.42.42 0 00.349-.488z" fill="#fff"/></svg>