<svg width="21" height="19" fill="none" xmlns="http://www.w3.org/2000/svg"><g clip-path="url(#clip0)"><path d="M19.04 2.106A5.068 5.068 0 0015.189.37c-2.108 0-3.442 1.26-4.19 2.314-.194.274-.36.55-.498.808a7.75 7.75 0 00-.498-.808C9.254 1.63 7.92.37 5.812.37A5.068 5.068 0 001.96 2.106C1.02 3.173.5 4.603.5 6.132c0 1.664.65 3.212 2.045 4.871 1.246 1.483 3.04 3.012 5.117 4.782.774.66 1.574 1.341 2.426 2.087l.026.022a.585.585 0 00.772 0l.026-.022c.852-.746 1.652-1.428 2.426-2.087 2.077-1.77 3.87-3.299 5.117-4.782C19.85 9.344 20.5 7.796 20.5 6.133c0-1.53-.518-2.96-1.46-4.027zm-6.462 12.787c-.667.568-1.354 1.153-2.078 1.783-.69-.598-1.382-1.193-2.078-1.784-4.065-3.463-6.75-5.752-6.75-8.76 0-1.243.414-2.398 1.166-3.25a3.911 3.911 0 012.974-1.34c1.607 0 2.646.99 3.234 1.82.528.745.803 1.495.897 1.784a.586.586 0 001.114 0c.094-.289.37-1.04.897-1.784.588-.83 1.627-1.82 3.233-1.82a3.91 3.91 0 012.975 1.34c.752.852 1.166 2.007 1.166 3.25 0 3.008-2.685 5.297-6.75 8.76v.001z" fill="#BABABA"/></g><defs><clipPath id="clip0"><path fill="#fff" transform="translate(.5 .37)" d="M0 0h20v18H0z"/></clipPath></defs></svg>