<svg width="22" height="23" fill="none" xmlns="http://www.w3.org/2000/svg"><g clip-path="url(#clip0)"><path d="M20.066 3.491H1.934A1.937 1.937 0 000 5.425v12.89c0 1.063.865 1.934 1.934 1.934h18.132A1.937 1.937 0 0022 18.315V5.425a1.937 1.937 0 00-1.934-1.934zm-.267 1.29l-8.758 8.758L2.207 4.78h17.592v.001zM1.29 18.047V5.685l6.208 6.155-6.208 6.208zm.912.912l6.212-6.212 2.176 2.158c.252.25.659.25.91-.002l2.122-2.123 6.178 6.18H2.201h.001zm18.51-.912l-6.179-6.177 6.178-6.178v12.356h.001z" fill="#21354B"/></g><defs><clipPath id="clip0"><path fill="#fff" transform="translate(0 .87)" d="M0 0h22v22H0z"/></clipPath></defs></svg>