<svg width="37" height="37" fill="none" xmlns="http://www.w3.org/2000/svg"><ellipse cx="18.142" cy="18.37" rx="18.142" ry="18" fill="#8AD350"/><path d="M9.828 15.818c.8 0 1.444.24 1.932.72.496.48.744 1.192.744 2.136v3.696h-1.872v-3.408c0-.512-.112-.892-.336-1.14-.224-.256-.548-.384-.972-.384-.472 0-.848.148-1.128.444-.28.288-.42.72-.42 1.296v3.192H5.904v-6.456h1.788v.756c.248-.272.556-.48.924-.624a3.145 3.145 0 011.212-.228zm10.767 3.348c0 .024-.012.192-.036.504h-4.884c.088.4.296.716.624.948.328.232.736.348 1.224.348.336 0 .632-.048.888-.144a2.23 2.23 0 00.732-.48l.996 1.08c-.608.696-1.496 1.044-2.664 1.044-.728 0-1.372-.14-1.932-.42a3.163 3.163 0 01-1.296-1.188 3.257 3.257 0 01-.456-1.716c0-.632.148-1.2.444-1.704a3.15 3.15 0 011.236-1.188 3.623 3.623 0 011.764-.432 3.6 3.6 0 011.716.408c.512.272.912.664 1.2 1.176.296.504.444 1.092.444 1.764zm-3.348-1.932c-.424 0-.78.12-1.068.36-.288.24-.464.568-.528.984h3.18c-.064-.408-.24-.732-.528-.972-.288-.248-.64-.372-1.056-.372zm14.845-1.32l-2.34 6.456h-1.8L26.5 18.362 25 22.37h-1.8l-2.328-6.456h1.764l1.524 4.368 1.584-4.368h1.584l1.536 4.368 1.572-4.368h1.656z" fill="#fff"/></svg>