<svg width="37" height="37" fill="none" xmlns="http://www.w3.org/2000/svg"><ellipse cx="18.308" cy="18.37" rx="18.142" ry="18" fill="#FF7248"/><path d="M14.469 19.218c-.821 0-1.493-.277-2.016-.832-.512-.565-.768-1.317-.768-2.256 0-.939.256-1.685.768-2.24.523-.565 1.195-.848 2.016-.848s1.488.283 2 .848c.512.555.768 1.301.768 2.24 0 .939-.256 1.69-.768 2.256-.512.555-1.179.832-2 .832zm6.672-6.048h1.904l-7.648 11.2h-1.904l7.648-11.2zm-6.672 4.736a.97.97 0 00.848-.448c.213-.298.32-.741.32-1.328 0-.587-.107-1.03-.32-1.328a.968.968 0 00-.848-.448c-.352 0-.635.155-.848.464-.213.299-.32.736-.32 1.312 0 .576.107 1.019.32 1.328.213.299.496.448.848.448zm7.6 6.592a2.836 2.836 0 01-1.44-.368 2.618 2.618 0 01-.976-1.088c-.235-.47-.352-1.013-.352-1.632s.117-1.163.352-1.632c.235-.47.56-.826.976-1.072a2.745 2.745 0 011.44-.384c.821 0 1.488.283 2 .848.523.555.784 1.301.784 2.24 0 .939-.261 1.69-.784 2.256-.512.555-1.179.832-2 .832zm0-1.312a.97.97 0 00.848-.448c.213-.31.32-.752.32-1.328 0-.576-.107-1.013-.32-1.312a.96.96 0 00-.848-.464c-.352 0-.635.15-.848.448-.213.299-.32.741-.32 1.328 0 .587.107 1.03.32 1.328.213.299.496.448.848.448z" fill="#fff"/></svg>