<svg width="22" height="24" fill="none" xmlns="http://www.w3.org/2000/svg"><g clip-path="url(#clip0)"><path d="M17.396 14.518c-.45-.47-.995-.72-1.572-.72-.571 0-1.12.246-1.59.715l-1.47 1.465c-.12-.065-.241-.125-.357-.186a5.913 5.913 0 01-.46-.246c-1.377-.874-2.628-2.014-3.828-3.488-.58-.735-.971-1.353-1.255-1.98.381-.35.735-.712 1.079-1.06.13-.13.26-.266.39-.396.977-.977.977-2.24 0-3.218l-1.27-1.27a19.36 19.36 0 01-.432-.44 21.964 21.964 0 00-.874-.866c-.45-.446-.99-.684-1.558-.684-.567 0-1.116.238-1.58.684l-.01.01-1.58 1.594a3.402 3.402 0 00-1.01 2.162c-.111 1.358.288 2.623.595 3.45.754 2.033 1.879 3.916 3.558 5.934 2.036 2.432 4.487 4.353 7.286 5.706 1.07.507 2.497 1.107 4.092 1.21.098.003.2.01.293.01 1.074 0 1.976-.388 2.683-1.155.005-.01.014-.014.019-.023.242-.293.52-.558.813-.842.2-.19.405-.39.605-.6.46-.479.702-1.037.702-1.609 0-.576-.246-1.13-.716-1.595l-2.553-2.562zm1.665 4.896c-.005 0-.005.005 0 0-.181.196-.367.373-.567.568-.303.288-.61.59-.898.93-.47.502-1.023.74-1.748.74-.07 0-.144 0-.214-.005-1.381-.089-2.665-.628-3.627-1.088a20.656 20.656 0 01-6.864-5.376c-1.585-1.91-2.645-3.678-3.348-5.575-.432-1.158-.59-2.06-.52-2.91.046-.545.255-.996.641-1.382L3.502 3.73c.228-.214.47-.33.707-.33.293 0 .53.177.679.325l.014.014c.283.265.553.54.837.833.144.15.293.297.441.45l1.27 1.27c.493.493.493.95 0 1.442-.135.135-.265.27-.4.4-.39.4-.763.772-1.167 1.134-.01.01-.019.014-.023.023-.4.4-.326.791-.242 1.056l.014.042c.33.8.795 1.553 1.502 2.45l.004.005c1.284 1.581 2.637 2.813 4.13 3.757a6 6 0 00.571.312c.168.084.326.163.46.246.02.01.038.023.057.033.158.08.306.116.46.116.386 0 .628-.242.707-.32l1.59-1.59c.158-.159.41-.35.702-.35.289 0 .526.181.67.34l.01.01 2.561 2.561c.48.474.48.963.005 1.456zM11.89 6.11a5.897 5.897 0 013.21 1.666 5.927 5.927 0 011.664 3.208c.051.307.316.52.618.52.038 0 .07-.004.107-.008a.63.63 0 00.517-.726 7.172 7.172 0 00-2.014-3.883 7.173 7.173 0 00-3.883-2.013.631.631 0 00-.447 1.15.62.62 0 00.229.087h-.001zm10.1 4.48a11.799 11.799 0 00-3.315-6.395A11.8 11.8 0 0012.28.88a.625.625 0 00-.612.98.63.63 0 00.407.256A10.565 10.565 0 0117.79 5.08a10.535 10.535 0 012.962 5.714.624.624 0 00.619.521c.037 0 .07-.005.107-.01a.615.615 0 00.511-.715h.001z" fill="#21354B"/></g><defs><clipPath id="clip0"><path fill="#fff" transform="translate(0 .87)" d="M0 0h22v23H0z"/></clipPath></defs></svg>