<svg width="22" height="23" fill="none" xmlns="http://www.w3.org/2000/svg"><g clip-path="url(#clip0)" fill="#21354B"><path d="M11 .87c-4.265 0-7.734 3.47-7.734 7.734 0 1.441.399 2.848 1.154 4.068l6.14 9.893c.117.19.324.305.547.305h.006a.644.644 0 00.547-.313l5.983-9.99a7.725 7.725 0 001.091-3.963C18.734 4.34 15.264.87 11 .87zm5.537 11.035l-5.44 9.082-5.581-8.995a6.437 6.437 0 01-.97-3.388c0-3.554 2.9-6.454 6.454-6.454s6.45 2.9 6.45 6.454a6.44 6.44 0 01-.913 3.301z"/><path d="M11 4.737a3.872 3.872 0 00-2.736 6.604A3.861 3.861 0 0011 12.472a3.86 3.86 0 003.867-3.868A3.872 3.872 0 0011 4.737zm0 6.454a2.59 2.59 0 01-2.587-2.587A2.596 2.596 0 0111 6.018a2.592 2.592 0 012.386 3.575A2.585 2.585 0 0111 11.191z"/></g><defs><clipPath id="clip0"><path fill="#fff" transform="translate(0 .87)" d="M0 0h22v22H0z"/></clipPath></defs></svg>