<svg width="62" height="51" fill="none" xmlns="http://www.w3.org/2000/svg"><circle cx="25.047" cy="25.37" r="25" fill="#DADADA"/><path d="M59.19 41.699l-1.336-2.217-1.433-6.622a.663.663 0 00-1.296.28l1.282 5.927H27.025a.663.663 0 000 1.326h29.83l1.199 1.99a.428.428 0 01.006.44.428.428 0 01-.38.221H16.32a.428.428 0 01-.38-.221.428.428 0 01.006-.44l1.2-1.99h6.226a.663.663 0 100-1.326h-5.78l2.255-10.418a1.544 1.544 0 011.501-1.211h31.304c.718 0 1.349.509 1.5 1.21l.374 1.727a.663.663 0 101.296-.28l-.374-1.727a2.88 2.88 0 00-2.257-2.203 5.239 5.239 0 00-3.197-4.24l-.079-.033-.191-.422a5.265 5.265 0 00-4.785-3.083h-.453l-.49-.886a5.288 5.288 0 00-3.8-2.651l-.126-.02a4.627 4.627 0 00-6.23 0l-.125.02a5.288 5.288 0 00-3.8 2.65l-.49.887h-.453a5.26 5.26 0 00-1.181.135.663.663 0 00.298 1.292c.29-.067.587-.101.883-.101h.844a.663.663 0 00.58-.342l.68-1.229a3.954 3.954 0 012.84-1.982l.328-.05a.663.663 0 00.352-.17l.119-.112a3.297 3.297 0 014.482 0l.12.112a.66.66 0 00.35.17l.328.05a3.953 3.953 0 012.841 1.982l.68 1.229a.663.663 0 00.58.342h.843c1.538 0 2.942.905 3.578 2.305l.3.66a.659.659 0 00.347.338l.32.133a3.916 3.916 0 012.36 2.963H22.068a3.916 3.916 0 012.36-2.963l.32-.133a.662.662 0 00.348-.338l.3-.66a3.89 3.89 0 01.601-.941.663.663 0 00-1.004-.866c-.327.38-.598.803-.805 1.26l-.192.422-.079.033a5.239 5.239 0 00-3.199 4.258 2.88 2.88 0 00-2.166 2.185l-2.406 11.113L14.81 41.7a1.742 1.742 0 00-.024 1.776c.316.56.89.895 1.534.895h41.36c.644 0 1.218-.335 1.534-.895a1.742 1.742 0 00-.025-1.776z" fill="#21354B"/><path d="M30.852 23.62c.196 0 .39-.087.52-.253l.172-.217c.357-.453.931-.67 1.499-.566l.566.104a.663.663 0 00.239-1.304l-.566-.104a2.87 2.87 0 00-2.78 1.05l-.17.216a.663.663 0 00.52 1.073zm9.54-.932l.565-.104a1.549 1.549 0 011.5.567l.17.216a.662.662 0 101.042-.82l-.17-.217a2.872 2.872 0 00-2.781-1.05l-.566.104a.663.663 0 10.24 1.304zm-9.801-9.942a3.191 3.191 0 003.188-3.188 3.191 3.191 0 00-3.188-3.188 3.191 3.191 0 00-3.187 3.188 3.191 3.191 0 003.188 3.188zm0-5.05c1.027 0 1.862.835 1.862 1.862a1.864 1.864 0 01-1.862 1.862 1.864 1.864 0 01-1.861-1.862c0-1.027.835-1.862 1.861-1.862zm17.084 7.713a2.374 2.374 0 002.372-2.372 2.374 2.374 0 00-2.372-2.371 2.374 2.374 0 00-2.37 2.371 2.374 2.374 0 002.37 2.372zm0-3.417a1.047 1.047 0 010 2.09 1.047 1.047 0 010-2.09zm5.885 7.449a2.068 2.068 0 002.066-2.065 2.068 2.068 0 00-2.066-2.066 2.068 2.068 0 00-2.065 2.066c0 1.139.927 2.065 2.066 2.065zm0-2.805a.74.74 0 11-.001 1.481.74.74 0 01.002-1.48z" fill="#21354B"/></svg>